HIERARCHY
ROOT Hips
{
	OFFSET 0.00000 0.00000 0.00000
	CHANNELS 6 Xposition Yposition Zposition Zrotation Yrotation Xrotation 
	JOINT LHipJoint
	{
		OFFSET 0 0 0
		CHANNELS 3 Zrotation Yrotation Xrotation
		JOINT LeftUpLeg
		{
			OFFSET 1.09156 -1.61406 0.76500
			CHANNELS 3 Zrotation Yrotation Xrotation
			JOINT LeftLeg
			{
				OFFSET 2.33750 -6.42225 0.00000
				CHANNELS 3 Zrotation Yrotation Xrotation
				JOINT LeftFoot
				{
					OFFSET 2.49247 -6.84800 0.00000
					CHANNELS 3 Zrotation Yrotation Xrotation
					JOINT LeftToeBase
					{
						OFFSET 0.15312 -0.42069 1.45461
						CHANNELS 3 Zrotation Yrotation Xrotation
						End Site
						{
							OFFSET 0.00000 -0.00000 0.77046
						}
					}
				}
			}
		}
	}
	JOINT RHipJoint
	{
		OFFSET 0 0 0
		CHANNELS 3 Zrotation Yrotation Xrotation
		JOINT RightUpLeg
		{
			OFFSET -0.99883 -1.61406 0.76500
			CHANNELS 3 Zrotation Yrotation Xrotation
			JOINT RightLeg
			{
				OFFSET -2.36877 -6.50815 0.00000
				CHANNELS 3 Zrotation Yrotation Xrotation
				JOINT RightFoot
				{
					OFFSET -2.53452 -6.96353 0.00000
					CHANNELS 3 Zrotation Yrotation Xrotation
					JOINT RightToeBase
					{
						OFFSET -0.13156 -0.36145 1.63237
						CHANNELS 3 Zrotation Yrotation Xrotation
						End Site
						{
							OFFSET -0.00000 -0.00000 0.84979
						}
					}
				}
			}
		}
	}
	JOINT LowerBack
	{
		OFFSET 0 0 0
		CHANNELS 3 Zrotation Yrotation Xrotation
		JOINT Spine
		{
			OFFSET -0.02431 1.98242 -0.13616
			CHANNELS 3 Zrotation Yrotation Xrotation
			JOINT Spine1
			{
				OFFSET 0.03629 1.98974 -0.02954
				CHANNELS 3 Zrotation Yrotation Xrotation
				JOINT Neck
				{
					OFFSET 0 0 0
					CHANNELS 3 Zrotation Yrotation Xrotation
					JOINT Neck1
					{
						OFFSET 0.09349 1.40783 0.22333
						CHANNELS 3 Zrotation Yrotation Xrotation
						JOINT Head
						{
							OFFSET -0.04273 1.44500 -0.06495
							CHANNELS 3 Zrotation Yrotation Xrotation
							End Site
							{
								OFFSET -0.02251 1.44600 -0.04544
							}
						}
					}
				}
				JOINT LeftShoulder
				{
					OFFSET 0 0 0
					CHANNELS 3 Zrotation Yrotation Xrotation
					JOINT LeftArm
					{
						OFFSET 3.49137 0.85126 -0.29740
						CHANNELS 3 Zrotation Yrotation Xrotation
						JOINT LeftForeArm
						{
							OFFSET 5.06035 -0.00000 0.00000
							CHANNELS 3 Zrotation Yrotation Xrotation
							JOINT LeftHand
							{
								OFFSET 3.14780 -0.00000 0.00000
								CHANNELS 3 Zrotation Yrotation Xrotation
								JOINT LeftFingerBase
								{
									OFFSET 0 0 0
									CHANNELS 3 Zrotation Yrotation Xrotation
									JOINT LeftHandIndex1
									{
										OFFSET 0.60675 -0.00000 0.00000
										CHANNELS 3 Zrotation Yrotation Xrotation
										End Site
										{
											OFFSET 0.48918 -0.00000 0.00000
										}
									}
								}
								JOINT LThumb
								{
									OFFSET 0 0 0
									CHANNELS 3 Zrotation Yrotation Xrotation
									End Site
									{
										OFFSET 0.49664 -0.00000 0.49664
									}
								}
							}
						}
					}
				}
				JOINT RightShoulder
				{
					OFFSET 0 0 0
					CHANNELS 3 Zrotation Yrotation Xrotation
					JOINT RightArm
					{
						OFFSET -3.28101 0.69707 0.00747
						CHANNELS 3 Zrotation Yrotation Xrotation
						JOINT RightForeArm
						{
							OFFSET -5.12273 -0.00000 -0.00000
							CHANNELS 3 Zrotation Yrotation Xrotation
							JOINT RightHand
							{
								OFFSET -3.42200 -0.00000 0.00000
								CHANNELS 3 Zrotation Yrotation Xrotation
								JOINT RightFingerBase
								{
									OFFSET 0 0 0
									CHANNELS 3 Zrotation Yrotation Xrotation
									JOINT RightHandIndex1
									{
										OFFSET -0.70460 -0.00000 0.00000
										CHANNELS 3 Zrotation Yrotation Xrotation
										End Site
										{
											OFFSET -0.56807 -0.00000 0.00000
										}
									}
								}
								JOINT RThumb
								{
									OFFSET 0 0 0
									CHANNELS 3 Zrotation Yrotation Xrotation
									End Site
									{
										OFFSET -0.57674 -0.00000 0.57674
									}
								}
							}
						}
					}
				}
			}
		}
	}
}
MOTION
Frames: 8
Frame Time: .0083333
38.4149 15.9874 0.0411 0 0 0 0 0 0 -21 0 0 0 0 0 0 0 0 0 0 0 0 0 0 21 0 0 0 0 0 0 0 0 0 0 0 0 0 0 0 0 0 0 0 0 0 0 -16 0 0 21 0 0 11 0 0 0 -8 0 0 0 0 0 0 0 0 0 0 0 0 0 0 0 0 0 0 0 0 8 0 0 0 0 0 0 0 0 0 0 0 0 0 0 0 0 0
38.4149 15.9874 0.0411 39.7613 -85.5078 -35.2299 0.0000 0.0000 0.0000 -17.3549 -11.3645 -7.7628 2.6429 10.0932 29.2790 0.5457 15.9167 -27.2668 0.3447 -3.7728 -10.4382 0.0000 0.0000 0.0000 10.6765 5.4319 -8.2432 -2.4382 -9.7247 28.0896 -0.3748 -15.3448 -25.2397 -0.2026 2.8983 -7.9958 -7.1362 -2.2712 -2.3273 0.3699 -2.9181 -1.5975 4.3038 -1.4251 0.0265 4.5422 1.0411 -8.8404 -0.8699 0.7925 12.7818 -0.9611 0.5112 5.3291 -0.0000 -0.0000 0.0000 -93.0333 -0.8265 -28.3256 4.7840 -8.2196 -0.3439 -0.0000 -0.0000 34.6410 20.8107 41.4982 14.1354 -7.1250 0.0000 -0.0000 -25.2740 72.0095 -16.5382 -0.0000 -0.0000 0.0000 88.1517 -1.6537 -22.7990 -4.8957 8.4084 -0.3601 0.0000 0.0000 33.8834 -24.2681 33.8407 -14.0939 7.1250 -0.0000 -0.0000 4.5320 6.2518 5.0136
38.4146 15.9879 0.0417 39.6027 -85.4865 -35.0728 0.0000 0.0000 0.0000 -17.3578 -11.3781 -7.7711 2.6455 10.0979 29.2942 0.5528 15.8894 -27.2900 0.3438 -3.7677 -10.4240 0.0000 0.0000 0.0000 10.6712 5.3818 -8.2372 -2.4351 -9.7190 28.0714 -0.4371 -15.1061 -25.4773 -0.1712 2.6657 -7.3493 -7.1614 -2.3030 -2.3378 0.3912 -2.9582 -1.5801 4.3376 -1.4464 0.0578 4.3797 0.8340 -8.7336 -1.0125 0.5506 13.1431 -0.9980 0.3762 5.4159 -0.0000 -0.0000 0.0000 -93.0684 -0.7624 -28.3915 4.8406 -8.3153 -0.3521 -0.0000 -0.0000 34.6727 20.8952 41.4902 14.1934 -7.1250 0.0000 -0.0000 -25.1545 72.0319 -16.4692 -0.0000 -0.0000 0.0000 88.1383 -1.5568 -22.7324 -4.8868 8.3934 -0.3588 0.0000 0.0000 33.8528 -23.9639 34.0992 -13.9922 7.1250 -0.0000 -0.0000 4.7442 6.4429 5.2638
38.4132 15.9873 0.0409 38.7770 -85.4827 -34.2283 0.0000 0.0000 0.0000 -17.2899 -11.4066 -7.8066 2.6483 10.1027 29.3101 0.5333 15.9557 -27.2169 0.3542 -3.8236 -10.5808 0.0000 0.0000 0.0000 10.7432 5.4911 -8.1975 -2.4342 -9.7172 28.0656 -0.3823 -15.3764 -25.3394 -0.2044 2.9113 -8.0320 -7.1402 -2.3257 -2.3758 0.4068 -2.9870 -1.6057 4.3398 -1.4603 0.0560 4.5882 0.8459 -8.6275 -1.2470 0.5735 13.1809 -1.1043 0.3812 5.4115 -0.0000 -0.0000 0.0000 -93.0578 -0.6522 -28.4117 4.8681 -8.3618 -0.3561 -0.0000 -0.0000 34.7076 20.3485 41.7476 13.8715 -7.1250 0.0000 -0.0000 -26.3042 72.0608 -17.2677 -0.0000 -0.0000 0.0000 88.1454 -1.5869 -22.7132 -4.8744 8.3725 -0.3570 0.0000 0.0000 33.8439 -23.8058 34.3318 -13.9723 7.1250 -0.0000 -0.0000 4.8715 6.6422 5.4209
38.4110 15.9854 0.0413 38.6357 -85.5257 -34.0807 0.0000 0.0000 0.0000 -17.2601 -11.4441 -7.7983 2.6512 10.1078 29.3264 0.5182 16.0582 -27.2184 0.3523 -3.8134 -10.5523 0.0000 0.0000 0.0000 10.7834 5.6005 -8.1594 -2.4330 -9.7151 28.0590 -0.3300 -15.5979 -25.1665 -0.2341 3.1140 -8.5964 -7.1412 -2.3503 -2.4101 0.4523 -3.0164 -1.5956 4.3847 -1.4762 0.0920 4.0632 0.9840 -9.0277 -0.7566 0.7154 14.4635 -0.8566 0.4617 5.8825 -0.0000 0.0000 0.0000 -93.1167 -0.7309 -28.5058 4.8403 -8.3148 -0.3520 -0.0000 -0.0000 34.7312 19.0276 42.9654 13.2271 -7.1250 0.0000 -0.0000 -30.2963 72.5982 -20.3620 -0.0000 0.0000 0.0000 88.0665 -1.5118 -22.6183 -4.8485 8.3286 -0.3532 0.0000 0.0000 33.8979 -24.0196 34.1872 -14.0580 7.1250 -0.0000 -0.0000 4.7292 6.5459 5.2545
38.4077 15.9816 0.0426 38.4468 -85.4163 -33.9408 0.0000 0.0000 0.0000 -17.3079 -11.3340 -7.8021 2.6536 10.1121 29.3404 0.5393 15.9039 -27.2032 0.3457 -3.7779 -10.4527 0.0000 0.0000 0.0000 10.7337 5.5881 -8.0883 -2.4358 -9.7202 28.0754 -0.3675 -15.5336 -25.4040 -0.2004 2.8828 -7.9526 -7.2274 -2.3924 -2.4448 0.4553 -3.0672 -1.5771 4.4320 -1.5034 0.1414 4.0798 0.9950 -8.9912 -0.8635 0.7377 14.7320 -0.8923 0.4654 5.9616 0.0000 0.0000 0.0000 -93.1301 -0.7894 -28.5267 4.7966 -8.2409 -0.3457 -0.0000 -0.0000 34.7394 17.6407 44.9798 12.6684 -7.1250 0.0000 -0.0000 -36.4567 73.6391 -25.5571 0.0000 0.0000 0.0000 88.0309 -1.4507 -22.5984 -4.8161 8.2739 -0.3485 0.0000 0.0000 33.9569 -24.0735 34.1438 -14.0771 7.1250 -0.0000 -0.0000 4.6920 6.5146 5.2107
38.4067 15.9806 0.0416 37.4030 -85.1184 -32.9282 0.0000 0.0000 0.0000 -17.3656 -11.1820 -7.8841 2.6521 10.1094 29.3318 0.5676 15.5798 -27.0541 0.3566 -3.8363 -10.6167 0.0000 0.0000 0.0000 10.6656 5.5557 -8.0010 -2.4420 -9.7317 28.1122 -0.3920 -15.6230 -25.7131 -0.1699 2.6554 -7.3206 -7.3727 -2.4870 -2.4617 0.4353 -3.1854 -1.5053 4.4849 -1.5673 0.2469 3.7842 1.2442 -9.7334 -0.4053 0.9844 16.0444 -0.6781 0.6072 6.5099 -0.0000 0.0000 0.0000 -93.1104 -0.9765 -28.5036 4.7507 -8.1634 -0.3392 -0.0000 -0.0000 34.7618 17.6776 45.1555 12.7334 -7.1250 0.0000 -0.0000 -36.8543 73.7801 -25.9600 -0.0000 0.0000 0.0000 88.0165 -1.1857 -22.6201 -4.7356 8.1379 -0.3371 0.0000 0.0000 33.9472 -23.9280 34.3989 -14.0730 7.1250 -0.0000 -0.0000 4.8166 6.7397 5.3666
38.3956 15.9774 0.0485 38.7567 -85.3135 -34.3754 0.0000 0.0000 0.0000 -17.4968 -11.6004 -7.4676 2.6487 10.1035 29.3124 0.5098 16.2116 -27.3309 0.3502 -3.8021 -10.5205 0.0000 0.0000 0.0000 10.6463 5.3991 -7.9858 -2.4520 -9.7501 28.1711 -0.3802 -15.5217 -25.4951 -0.2174 3.0014 -8.2827 -7.2798 -2.4457 -2.6130 0.4353 -3.1170 -1.4491 4.4275 -1.5396 0.3764 4.0500 1.1619 -9.5350 -0.7824 0.8966 16.0985 -0.8510 0.5488 6.4933 0.0000 0.0000 0.0000 -93.1291 -1.0103 -28.5952 4.7078 -8.0907 -0.3331 -0.0000 -0.0000 34.7930 18.2584 44.2783 12.9705 -7.1250 0.0000 -0.0000 -34.0831 73.3442 -23.5870 0.0000 0.0000 0.0000 87.9702 -1.0822 -22.5295 -4.6810 8.0454 -0.3294 0.0000 0.0000 33.9125 -23.9752 34.3501 -14.0862 7.1250 -0.0000 -0.0000 4.7822 6.7012 5.3252
